<svg xmlns="http://www.w3.org/2000/svg" viewBox="0 0 2000 2000" fill="currentColor">
  <path d="M1561.03,671.47c-57.29-57.28-133.46-88.83-214.47-88.83-14.63,0-29.02,1.38-43.25,3.41v-97.98c0-81.02-31.55-157.18-88.83-214.47-57.29-57.28-133.46-88.83-214.47-88.83-167.25,0-303.31,136.06-303.31,303.3v97.98c-14.23-2.02-28.62-3.41-43.25-3.41-81,0-157.17,31.55-214.46,88.83-57.28,57.27-88.83,133.44-88.83,214.47v625.99c0,81.03,31.55,157.2,88.83,214.47,57.3,57.28,133.47,88.83,214.46,88.83,167.25,0,303.31-136.07,303.31-303.31v-101.25c14.23,2.02,28.62,3.41,43.25,3.41s29.02-1.38,43.25-3.41v101.25c0,81.01,31.54,157.18,88.85,214.48,57.3,57.28,133.47,88.83,214.46,88.83,167.25,0,303.31-136.07,303.31-303.31v-625.99c0-81.02-31.55-157.18-88.83-214.47ZM874.78,1511.93c0,122.05-99.3,221.35-221.35,221.35-59.11,0-114.7-23.02-156.5-64.83-41.81-41.8-64.83-97.39-64.83-156.52v-625.99c0-59.13,23.02-114.71,64.83-156.51,41.81-41.81,97.39-64.83,156.5-64.83,14.69,0,29.16,1.43,43.25,4.21v441.97c0,81.01,31.54,157.18,88.85,214.48,26.21,26.2,56.49,46.71,89.25,61.59v125.08ZM874.78,1293.22c-11.07-7.63-21.59-16.21-31.3-25.92-41.81-41.82-64.83-97.4-64.83-156.52v-407.28c11.07,7.63,21.59,16.22,31.3,25.93,41.81,41.8,64.83,97.39,64.83,156.51v407.28ZM999.99,1332.13c-14.69,0-29.16-1.43-43.25-4.21v-441.98c0-81.02-31.55-157.18-88.83-214.47-26.21-26.2-56.5-46.73-89.26-61.6v-121.8c0-122.05,99.3-221.34,221.35-221.34,59.13,0,114.71,23.02,156.52,64.83,41.81,41.8,64.83,97.39,64.83,156.51v121.81c-32.76,14.88-63.05,35.39-89.26,61.59-57.28,57.28-88.83,133.45-88.83,214.47v441.98c-14.1,2.78-28.56,4.21-43.25,4.21ZM1221.34,703.5v407.28c0,59.12-23.02,114.71-64.83,156.52-9.71,9.71-20.23,18.3-31.3,25.93v-407.29c0-59.12,23.02-114.71,64.82-156.5,9.72-9.71,20.24-18.3,31.32-25.93ZM1567.9,1511.93c0,122.05-99.3,221.35-221.35,221.35-59.1,0-114.7-23.03-156.52-64.82-41.81-41.82-64.83-97.4-64.83-156.52v-125.08c32.76-14.88,63.05-35.4,89.26-61.6,57.29-57.29,88.83-133.46,88.83-214.47v-441.97c14.1-2.78,28.56-4.21,43.25-4.21,59.13,0,114.71,23.02,156.52,64.83,41.81,41.8,64.83,97.39,64.83,156.51v625.99Z"/>
</svg>
